<mxfile host="app.diagrams.net" modified="2023-06-09T10:36:21.288Z" agent="Mozilla/5.0 (X11; Linux x86_64) AppleWebKit/537.36 (KHTML, like Gecko) Chrome/103.0.5060.114 Safari/537.36 Edg/103.0.1264.62" etag="Qj_SFKpkPFkXg9ybaBzz" version="21.3.5" type="github">
  <diagram id="C5RBs43oDa-KdzZeNtuy" name="Page-1">
    <mxGraphModel dx="1362" dy="775" grid="1" gridSize="10" guides="1" tooltips="1" connect="1" arrows="1" fold="1" page="1" pageScale="1" pageWidth="827" pageHeight="1169" math="0" shadow="0">
      <root>
        <mxCell id="WIyWlLk6GJQsqaUBKTNV-0" />
        <mxCell id="WIyWlLk6GJQsqaUBKTNV-1" parent="WIyWlLk6GJQsqaUBKTNV-0" />
        <mxCell id="WIyWlLk6GJQsqaUBKTNV-3" value="&lt;font style=&quot;font-size: 18px;&quot;&gt;MLISAParser&lt;/font&gt;" style="rounded=1;whiteSpace=wrap;html=1;fontSize=12;glass=0;strokeWidth=1;shadow=0;" parent="WIyWlLk6GJQsqaUBKTNV-1" vertex="1">
          <mxGeometry x="250" y="160" width="120" height="40" as="geometry" />
        </mxCell>
        <mxCell id="y_5E3IoeFNJCKNngxXXu-0" value="&lt;font style=&quot;font-size: 18px;&quot;&gt;MModule&lt;/font&gt;" style="rounded=1;whiteSpace=wrap;html=1;fontSize=12;glass=0;strokeWidth=1;shadow=0;" vertex="1" parent="WIyWlLk6GJQsqaUBKTNV-1">
          <mxGeometry x="220" y="420" width="120" height="40" as="geometry" />
        </mxCell>
        <mxCell id="y_5E3IoeFNJCKNngxXXu-2" style="edgeStyle=orthogonalEdgeStyle;rounded=0;orthogonalLoop=1;jettySize=auto;html=1;exitX=0.5;exitY=1;exitDx=0;exitDy=0;entryX=0.5;entryY=0;entryDx=0;entryDy=0;" edge="1" parent="WIyWlLk6GJQsqaUBKTNV-1" source="y_5E3IoeFNJCKNngxXXu-1" target="y_5E3IoeFNJCKNngxXXu-0">
          <mxGeometry relative="1" as="geometry" />
        </mxCell>
        <mxCell id="y_5E3IoeFNJCKNngxXXu-1" value="&lt;font style=&quot;font-size: 18px;&quot;&gt;MObject&lt;/font&gt;" style="rounded=1;whiteSpace=wrap;html=1;fontSize=12;glass=0;strokeWidth=1;shadow=0;" vertex="1" parent="WIyWlLk6GJQsqaUBKTNV-1">
          <mxGeometry x="220" y="340" width="120" height="40" as="geometry" />
        </mxCell>
        <mxCell id="y_5E3IoeFNJCKNngxXXu-4" style="edgeStyle=orthogonalEdgeStyle;rounded=0;orthogonalLoop=1;jettySize=auto;html=1;exitX=0.5;exitY=1;exitDx=0;exitDy=0;" edge="1" parent="WIyWlLk6GJQsqaUBKTNV-1" source="y_5E3IoeFNJCKNngxXXu-3" target="y_5E3IoeFNJCKNngxXXu-1">
          <mxGeometry relative="1" as="geometry" />
        </mxCell>
        <mxCell id="y_5E3IoeFNJCKNngxXXu-3" value="&lt;font style=&quot;font-size: 18px;&quot;&gt;MContext&lt;/font&gt;" style="rounded=1;whiteSpace=wrap;html=1;fontSize=12;glass=0;strokeWidth=1;shadow=0;" vertex="1" parent="WIyWlLk6GJQsqaUBKTNV-1">
          <mxGeometry x="220" y="250" width="120" height="40" as="geometry" />
        </mxCell>
        <mxCell id="y_5E3IoeFNJCKNngxXXu-11" style="edgeStyle=orthogonalEdgeStyle;rounded=0;orthogonalLoop=1;jettySize=auto;html=1;exitX=1;exitY=0.5;exitDx=0;exitDy=0;" edge="1" parent="WIyWlLk6GJQsqaUBKTNV-1" source="y_5E3IoeFNJCKNngxXXu-5" target="y_5E3IoeFNJCKNngxXXu-9">
          <mxGeometry relative="1" as="geometry" />
        </mxCell>
        <mxCell id="y_5E3IoeFNJCKNngxXXu-12" style="edgeStyle=orthogonalEdgeStyle;rounded=0;orthogonalLoop=1;jettySize=auto;html=1;exitX=1;exitY=0.5;exitDx=0;exitDy=0;entryX=0;entryY=0.5;entryDx=0;entryDy=0;" edge="1" parent="WIyWlLk6GJQsqaUBKTNV-1" source="y_5E3IoeFNJCKNngxXXu-5" target="y_5E3IoeFNJCKNngxXXu-8">
          <mxGeometry relative="1" as="geometry" />
        </mxCell>
        <mxCell id="y_5E3IoeFNJCKNngxXXu-13" style="edgeStyle=orthogonalEdgeStyle;rounded=0;orthogonalLoop=1;jettySize=auto;html=1;exitX=1;exitY=0.5;exitDx=0;exitDy=0;entryX=0;entryY=0.5;entryDx=0;entryDy=0;" edge="1" parent="WIyWlLk6GJQsqaUBKTNV-1" source="y_5E3IoeFNJCKNngxXXu-5" target="y_5E3IoeFNJCKNngxXXu-10">
          <mxGeometry relative="1" as="geometry" />
        </mxCell>
        <mxCell id="y_5E3IoeFNJCKNngxXXu-5" value="&lt;font style=&quot;font-size: 18px;&quot;&gt;MStmt&lt;/font&gt;" style="rounded=1;whiteSpace=wrap;html=1;fontSize=12;glass=0;strokeWidth=1;shadow=0;" vertex="1" parent="WIyWlLk6GJQsqaUBKTNV-1">
          <mxGeometry x="220" y="600" width="120" height="40" as="geometry" />
        </mxCell>
        <mxCell id="y_5E3IoeFNJCKNngxXXu-7" style="edgeStyle=orthogonalEdgeStyle;rounded=0;orthogonalLoop=1;jettySize=auto;html=1;exitX=1;exitY=0.5;exitDx=0;exitDy=0;entryX=0;entryY=0.5;entryDx=0;entryDy=0;" edge="1" parent="WIyWlLk6GJQsqaUBKTNV-1" source="y_5E3IoeFNJCKNngxXXu-6" target="y_5E3IoeFNJCKNngxXXu-5">
          <mxGeometry relative="1" as="geometry" />
        </mxCell>
        <mxCell id="y_5E3IoeFNJCKNngxXXu-6" value="&lt;font style=&quot;font-size: 18px;&quot;&gt;MObject&lt;/font&gt;" style="rounded=1;whiteSpace=wrap;html=1;fontSize=12;glass=0;strokeWidth=1;shadow=0;" vertex="1" parent="WIyWlLk6GJQsqaUBKTNV-1">
          <mxGeometry x="60" y="600" width="120" height="40" as="geometry" />
        </mxCell>
        <mxCell id="y_5E3IoeFNJCKNngxXXu-8" value="&lt;font style=&quot;font-size: 18px;&quot;&gt;MInstStmt&lt;br&gt;指令语句&lt;br&gt;&lt;/font&gt;" style="rounded=1;whiteSpace=wrap;html=1;fontSize=12;glass=0;strokeWidth=1;shadow=0;" vertex="1" parent="WIyWlLk6GJQsqaUBKTNV-1">
          <mxGeometry x="390" y="405" width="120" height="55" as="geometry" />
        </mxCell>
        <mxCell id="y_5E3IoeFNJCKNngxXXu-9" value="&lt;font style=&quot;font-size: 18px;&quot;&gt;MDirctStmt&lt;br&gt;伪指令语句&lt;br&gt;&lt;/font&gt;" style="rounded=1;whiteSpace=wrap;html=1;fontSize=12;glass=0;strokeWidth=1;shadow=0;" vertex="1" parent="WIyWlLk6GJQsqaUBKTNV-1">
          <mxGeometry x="390" y="592.5" width="120" height="55" as="geometry" />
        </mxCell>
        <mxCell id="y_5E3IoeFNJCKNngxXXu-10" value="&lt;font style=&quot;font-size: 18px;&quot;&gt;MDeclStmt&lt;br&gt;声明语句&lt;br&gt;&lt;/font&gt;" style="rounded=1;whiteSpace=wrap;html=1;fontSize=12;glass=0;strokeWidth=1;shadow=0;" vertex="1" parent="WIyWlLk6GJQsqaUBKTNV-1">
          <mxGeometry x="390" y="780" width="120" height="55" as="geometry" />
        </mxCell>
        <mxCell id="y_5E3IoeFNJCKNngxXXu-14" value="&lt;font style=&quot;font-size: 18px;&quot;&gt;指令&lt;/font&gt;" style="text;html=1;align=center;verticalAlign=middle;resizable=0;points=[];autosize=1;strokeColor=none;fillColor=none;" vertex="1" parent="WIyWlLk6GJQsqaUBKTNV-1">
          <mxGeometry x="70" y="800" width="60" height="40" as="geometry" />
        </mxCell>
        <mxCell id="y_5E3IoeFNJCKNngxXXu-15" value="&lt;font style=&quot;font-size: 18px;&quot;&gt;mlisa 版本等&lt;/font&gt;" style="text;html=1;align=center;verticalAlign=middle;resizable=0;points=[];autosize=1;strokeColor=none;fillColor=none;" vertex="1" parent="WIyWlLk6GJQsqaUBKTNV-1">
          <mxGeometry x="70" y="877" width="120" height="40" as="geometry" />
        </mxCell>
        <mxCell id="y_5E3IoeFNJCKNngxXXu-16" value="&lt;font style=&quot;font-size: 18px;&quot;&gt;变量、函数名等&lt;/font&gt;" style="text;html=1;align=center;verticalAlign=middle;resizable=0;points=[];autosize=1;strokeColor=none;fillColor=none;" vertex="1" parent="WIyWlLk6GJQsqaUBKTNV-1">
          <mxGeometry x="70" y="957" width="150" height="40" as="geometry" />
        </mxCell>
        <mxCell id="y_5E3IoeFNJCKNngxXXu-17" value="&lt;font style=&quot;font-size: 18px;&quot;&gt;MVarDecl&lt;/font&gt;" style="rounded=1;whiteSpace=wrap;html=1;fontSize=12;glass=0;strokeWidth=1;shadow=0;" vertex="1" parent="WIyWlLk6GJQsqaUBKTNV-1">
          <mxGeometry x="600" y="647.5" width="120" height="40" as="geometry" />
        </mxCell>
        <mxCell id="y_5E3IoeFNJCKNngxXXu-18" value="&lt;font style=&quot;font-size: 18px;&quot;&gt;MRegDecl&lt;/font&gt;" style="rounded=1;whiteSpace=wrap;html=1;fontSize=12;glass=0;strokeWidth=1;shadow=0;" vertex="1" parent="WIyWlLk6GJQsqaUBKTNV-1">
          <mxGeometry x="600" y="697.5" width="120" height="40" as="geometry" />
        </mxCell>
        <mxCell id="y_5E3IoeFNJCKNngxXXu-19" value="&lt;font style=&quot;font-size: 18px;&quot;&gt;MFuncDecl&lt;/font&gt;" style="rounded=1;whiteSpace=wrap;html=1;fontSize=12;glass=0;strokeWidth=1;shadow=0;" vertex="1" parent="WIyWlLk6GJQsqaUBKTNV-1">
          <mxGeometry x="600" y="747.5" width="120" height="40" as="geometry" />
        </mxCell>
      </root>
    </mxGraphModel>
  </diagram>
</mxfile>
